<?xml version="1.0" encoding="UTF-8"?><svg id="Layer_2" xmlns="http://www.w3.org/2000/svg" viewBox="0 0 537.34 127.73"><g id="Layer_1-2"><path d="m110.2,22.02c0-12.16-9.87-22.02-22.04-22.02H22.04C9.87,0,0,9.86,0,22.02v44.04c0,12.16,9.87,22.02,22.04,22.02h66.12c12.17,0,22.04-9.86,22.04-22.02s-9.87-22.02-22.04-22.02c12.17,0,22.04-9.86,22.04-22.02Zm-30.86,48.45H22.04v-17.62h57.3c4.87,0,8.82,3.94,8.82,8.81s-3.95,8.81-8.82,8.81Zm0-35.24H22.04v-17.62h57.3c4.87,0,8.82,3.94,8.82,8.81s-3.95,8.81-8.82,8.81Zm101.38-17.62h-39.67c-12.17,0-22.04,9.86-22.04,22.02v26.43c0,12.16,9.87,22.02,22.04,22.02h39.67c12.17,0,22.04-9.86,22.04-22.02v-26.43c0-12.16-9.87-22.02-22.04-22.02Zm0,22.02v30.83h-39.67v-35.24h39.67v4.4ZM427.14,0c-10.66,0-19.56,7.57-21.6,17.62h-9.26v17.62h8.82v30.83c0,12.16,9.87,22.02,22.04,22.02h17.63v-17.62h-17.63v-35.24h17.63v-17.62h-17.63V0Zm-60.83,17.62h21.6V0c-10.66,0-19.56,7.57-21.6,17.62Zm148.99,0v52.85h-39.67V17.62c-12.17,0-22.04,9.86-22.04,22.02v26.43c0,12.16,9.87,22.02,22.04,22.02h39.67v22.02h-39.67c-10.66,0-19.56,7.57-21.6,17.62h61.27c12.17,0,22.04-9.86,22.04-22.02V39.64c0-12.16-9.87-22.02-22.04-22.02ZM242.43,0c-10.66,0-19.56,7.57-21.6,17.62h-9.26v17.62h8.82v30.83c0,12.16,9.87,22.02,22.04,22.02h17.63v-17.62h-17.63v-35.24h17.63v-17.62h-17.63V0Zm123.44,88.09h22.04V26.43h-22.04v61.66Zm-74.95-66.07v-4.4h65.69c-2.04-10.05-10.94-17.62-21.6-17.62h-44.1c-12.17,0-22.04,9.86-22.04,22.02v44.04c0,12.16,9.87,22.02,22.04,22.02h44.1c10.66,0,19.56-7.57,21.6-17.62h-65.69V22.02Z"/></g></svg>