<?xml version="1.0"  encoding="UTF-8" standalone="no"?> <svg xmlns="http://www.w3.org/2000/svg" fill="#fff" viewBox="0 0 64 64"><title>1</title><g id="Layer_82" data-name="Layer 82"><path d="M37.44,14.72a5.48,5.48,0,0,0,1-1.23l.88-1.61A5.51,5.51,0,0,0,37.1,4.42L33.87,2.65A5.5,5.5,0,0,0,26.4,4.82l-.88,1.61A5.47,5.47,0,0,0,25,7.87a2,2,0,0,0-2.43.91l-20.3,37a2,2,0,0,0-.25,1l.51,13.24a2,2,0,0,0,3,1.65L16.95,55a2,2,0,0,0,.74-.76l20.3-37A2,2,0,0,0,37.44,14.72ZM29,8.35l.88-1.61A1.49,1.49,0,0,1,30.8,6,1.51,1.51,0,0,1,31.22,6a1.49,1.49,0,0,1,.72.19l3.23,1.77a1.5,1.5,0,0,1,.59,2l-.88,1.61a1.5,1.5,0,0,1-2,.6l-2-1.08-1.27-.7A1.5,1.5,0,0,1,29,8.35ZM14.45,51.88,6.38,56.59,6,47.24,25.09,12.47l5,2.74.84.46h0l2.6,1.43Z"/><path d="M60,58H24.6a2,2,0,1,0,0,4H60a2,2,0,0,0,0-4Z"/><path d="M60,47.43H29.81a2,2,0,1,0,0,4H60a2,2,0,0,0,0-4Z"/><path d="M60,36.85H35.2a2,2,0,0,0,0,4H60a2,2,0,0,0,0-4Z"/><path d="M42.3,30.28H60a2,2,0,0,0,0-4H42.3a2,2,0,0,0,0,4Z"/></g></svg>