<svg height="512pt" fill='#AE337A' viewBox="0 -43 512 512" width="512pt" xmlns="http://www.w3.org/2000/svg"><path d="m256 186.722656 242.570312-154.472656c-13.558593-19.472656-36.09375-32.25-61.570312-32.25h-362c-25.476562 0-48.011719 12.777344-61.570312 32.25zm0 0"/><path d="m264.058594 217.15625c-2.460938 1.566406-5.257813 2.347656-8.058594 2.347656s-5.601562-.78125-8.058594-2.347656l-246.46875-156.953125c-.960937 4.785156-1.472656 9.730469-1.472656 14.796875v276.875c0 41.355469 33.644531 75 75 75h362c41.355469 0 75-33.644531 75-75v-276.875c0-5.066406-.511719-10.011719-1.472656-14.796875zm0 0"/></svg>