<svg viewBox="0 0 48 48" xmlns="http://www.w3.org/2000/svg" xmlns:xlink="http://www.w3.org/1999/xlink" >
<defs>



 <g> <path fill="#fff" id="i-2185" d="M38,0c-5.445,0-9.887,4.387-9.99,9.809l-0.895,2.682L1.62,41.039L3.585,43l-3.292,3.293l1.414,1.414L5,44.413l1.95,1.946 l13.441-11.588C20.562,34.906,20.768,35,21,35c0.21,0,0.4-0.061,0.561-0.17c0.049-0.041,0.1-0.08,0.149-0.121L23,33.674V48h2 V32.068l2-1.604V48h2V28.859l1.52-1.221l0.091-0.189c0.292-0.58,0.395-1.204,0.386-1.822l5.495-4.737l3.079-1.026 C44.336,19.105,48,14.975,48,10C48,4.49,43.51,0,38,0z M28.9,26.379l-6.7,5.381c-0.181-0.99-0.58-1.9-0.9-2.52l7.12-5.711 C28.81,24.39,29.18,25.549,28.9,26.379z M30.532,23.392c-0.381-1.015-0.872-1.781-0.982-1.942l-0.6-0.91l-10.29,8.25l0.51,0.76 c0.299,0.46,0.917,1.635,1.069,2.711L7.05,43.64l-2.67-2.681L28.432,14.02c3.053,0.192,6.266,2.395,6.54,5.547L30.532,23.392z M36.873,18.654c-0.684-3.571-4.035-6.035-7.52-6.553l0.356-1.07c3.827,0.332,7.821,3.288,8.252,7.26L36.873,18.654z M39.897,17.767c-0.669-4.478-4.881-8.237-9.836-8.715c0.176-1.483,0.761-2.841,1.637-3.963c0.278-0.067,0.457-0.102,0.466-0.103 c2.519-0.42,5.479,0.566,7.922,2.637c2.437,2.063,3.897,4.802,3.914,7.332c-0.006,0.092-0.002,0.196,0.006,0.32 C42.939,16.487,41.514,17.371,39.897,17.767z M41.379,6.096c-2.157-1.826-4.693-2.932-7.128-3.158C35.37,2.34,36.646,2,38,2 c4.41,0,8,3.59,8,8c0,0.846-0.139,1.66-0.384,2.426C44.963,10.13,43.484,7.881,41.379,6.096z"/> </g> 
</defs>

<use x="0" y="0" xlink:href="#i-2185"/>

</svg>