<?xml version="1.0" encoding="iso-8859-1"?>
<!-- Generator: Adobe Illustrator 19.0.0, SVG Export Plug-In . SVG Version: 6.00 Build 0)  -->
<svg version="1.1" fill='#fff' id="Capa_1" xmlns="http://www.w3.org/2000/svg" xmlns:xlink="http://www.w3.org/1999/xlink" x="0px" y="0px"
	 viewBox="0 0 512 512" style="enable-background:new 0 0 512 512;" xml:space="preserve">
<g>
	<g>
		<path d="M437.02,74.981C388.667,26.629,324.38,0,256,0S123.333,26.629,74.98,74.981C26.629,123.333,0,187.62,0,256h30v138h30v63
			c0,30.327,24.673,55,55,55c30.327,0,55-24.673,55-55V331c0-30.327-24.673-55-55-55c-30.327,0-55,24.673-55,55v-75h30
			c0-91.533,74.467-166,166-166s166,74.467,166,166h30v75c0-30.327-24.673-55-55-55c-30.327,0-55,24.673-55,55v126
			c0,30.327,24.673,55,55,55c30.327,0,55-24.673,55-55v-63h30V256h30C512,187.62,485.371,123.333,437.02,74.981z M90,331
			c0-13.785,11.215-25,25-25c13.785,0,25,11.215,25,25v126c0,13.785-11.215,25-25,25c-13.785,0-25-11.215-25-25V331z M422,457
			c0,13.785-11.215,25-25,25c-13.785,0-25-11.215-25-25V331c0-13.785,11.215-25,25-25c13.785,0,25,11.215,25,25V457z M449.706,226
			C435.224,132.115,353.876,60,256,60S76.776,132.115,62.294,226H31.995C46.715,115.514,141.553,30,256,30
			s209.285,85.514,224.005,196H449.706z"/>
	</g>
</g>
<g>
</g>
<g>
</g>
<g>
</g>
<g>
</g>
<g>
</g>
<g>
</g>
<g>
</g>
<g>
</g>
<g>
</g>
<g>
</g>
<g>
</g>
<g>
</g>
<g>
</g>
<g>
</g>
<g>
</g>
</svg>
